<?xml version="1.0" encoding="UTF-8"?>
<svg id="_图层_1" data-name="图层 1" xmlns="http://www.w3.org/2000/svg" viewBox="0 0 453.54 151.68">
  <defs>
    <style>
      .cls-1 {
        fill: #81318d;
      }
    </style>
  </defs>
  <g>
    <path class="cls-1" d="M101.47,10.32s-30.26,6.78-51.47,27.32c-16.2,15.69-27.06,39.31-16.8,68.74,8.53,24.46,31.4,39.37,54.48,40.8,31,1.91,50.88-16.91,59.49-31.82,12.75-22.07,11.82-62.47-26.9-62.27-37.27,.19-54.18,28.24-54.18,28.24,11.43-10.88,34.1-7.39,35.07,10.4,.98,17.99-19.88,27.91-38.28,14.2-21.11-15.73-18.2-64.79,38.58-95.61Z"/>
    <path class="cls-1" d="M56.51,81.33s.6-3.73,2.4-9.6C71.34,31.21,109.27,3.9,151.66,3.9h36.68s-36.97,14.43-48.16,41.96l-2.6-.53c-6.97-1.43-14.09-2.07-21.19-1.62-19.48,1.25-43.13,8.7-59.88,37.63Z"/>
    <path class="cls-1" d="M27.05,56.16s-17.57,10.13-21.81,32.69c-2.37,12.63,7.58,24.22,20.42,23.77h0s-14.35-25.02,1.39-56.46Z"/>
    <path class="cls-1" d="M147.39,52.22s23.16,6.77,30.85,28.39c4.3,12.11-3.73,25.1-16.48,26.65h0s13.07-33.88-14.36-55.04Z"/>
  </g>
  <g>
    <path d="M228.22,105.76h-17.52l-3.18,17.68h17.52l1.08-6.01,6.25,1.35-.59,3.3c-.45,2.53-1.24,4.26-2.35,5.2-1.16,.93-3.07,1.4-5.76,1.4h-16.67c-2.67,0-4.43-.47-5.26-1.4-.76-.95-.92-2.68-.47-5.2l2.65-14.7c.45-2.51,1.23-4.24,2.33-5.19,1.16-.94,3.09-1.41,5.77-1.41h16.67c2.68,0,4.43,.47,5.25,1.41,.77,.94,.93,2.67,.48,5.19l-.48,2.65-6.68,1.03,.96-5.3Z"/>
    <path d="M235.03,128.68l4.12-22.87h5.62l-1.57,8.71h17.39l1.57-8.71h5.57l-4.12,22.87h-5.57l1.73-9.62h-17.39l-1.73,9.62h-5.62Z"/>
    <path d="M268.42,128.68l4.12-22.87h5.52l-4.12,22.87h-5.52Z"/>
    <path class="cls-1" d="M282.92,128.68l5.02-27.9h23.83c2.19,0,3.74,.42,4.64,1.25,.81,.85,1.05,2.24,.71,4.16l-1.12,6.22c-.34,1.88-1.07,3.25-2.19,4.11-1.19,.87-2.89,1.3-5.11,1.3h-17.46l-1.95,10.86h-6.37Zm25.13-23.08h-14.6l-1.34,7.41h14.6c1.14,0,1.94-.16,2.41-.49,.45-.33,.76-.9,.91-1.73l.53-2.97c.15-.83,.05-1.4-.28-1.73-.36-.33-1.1-.49-2.24-.49Z"/>
    <path d="M316.74,128.68l4.12-22.87h5.52l-4.12,22.87h-5.52Z"/>
    <path d="M327.08,128.68l4.12-22.87h24.53l-.73,4.05h-18.91l-.89,4.98h11.02l-.71,3.95h-11.02l-1.01,5.62h19.19l-.77,4.27h-24.81Z"/>
    <path d="M354.52,128.68l4.12-22.87h20.55c1.89,0,3.2,.35,3.92,1.03,.71,.71,.92,1.85,.64,3.4l-.98,5.41c-.27,1.52-.89,2.64-1.85,3.35-.97,.68-2.39,1.03-4.28,1.03h-3.13l9.3,8.64h-7.98l-8.02-8.64h-5.26l-1.56,8.64h-5.47Zm21.59-18.92h-12.72l-1.14,6.33h12.72c.92,0,1.61-.15,2.07-.44,.41-.26,.67-.73,.8-1.41l.47-2.64c.12-.68,.03-1.15-.29-1.41-.35-.29-.99-.43-1.91-.43Z"/>
    <path d="M407.08,109.97h-15.03l-2.58,14.33h15.03l.87-4.86,5.42,1.13-.49,2.69c-.37,2.08-1.04,3.5-2.01,4.28-.96,.76-2.62,1.14-4.97,1.14h-14.27c-2.32,0-3.82-.38-4.49-1.14-.69-.76-.85-2.18-.47-4.27l2.17-12.05c.38-2.08,1.04-3.5,2.01-4.28,.95-.76,2.58-1.14,4.9-1.14h14.27c2.35,0,3.87,.38,4.56,1.13,.69,.78,.84,2.21,.47,4.27l-.4,2.21-5.77,.8,.77-4.26Z"/>
    <path d="M413.68,128.68l4.12-22.87h24.53l-.73,4.05h-18.91l-.89,4.98h11.02l-.71,3.95h-11.02l-1.01,5.62h19.19l-.77,4.27h-24.81Z"/>
  </g>
  <g>
    <path d="M225.19,50l-6.28,33.63c-.61,3.01-2.01,5.47-4.19,7.4-2.18,1.92-4.69,2.88-7.52,2.88h-2.09l8.18-43.9h11.91Z"/>
    <path d="M221.33,44.89l.39-2.88h-9.88l.52-3.66c.13-.83,.48-1.51,1.05-2.06,.57-.55,1.26-.82,2.09-.82h7.07l.07-.39c.13-.83,.48-1.52,1.05-2.06,.57-.54,1.24-.82,2.03-.82h10.21l-.46,3.27h29.51l.06-.39c.13-.83,.49-1.52,1.08-2.06,.59-.54,1.28-.82,2.06-.82h10.14l-.46,3.27h9.88l-.46,3.6c-.13,.87-.49,1.58-1.08,2.13-.59,.55-1.28,.82-2.06,.82h-7.13c-.13,.83-.48,1.52-1.05,2.06-.57,.55-1.24,.82-2.03,.82h-10.21l.39-2.88h-29.51c-.13,.83-.49,1.52-1.08,2.06-.59,.55-1.28,.82-2.06,.82h-10.14Z"/>
    <path d="M229.84,47.44h12.89l-4.91,37.23c-.09,.65,.07,1.22,.46,1.7,.35,.43,.83,.65,1.44,.65h19.82c1.53,0,2.78,.6,3.76,1.8,.98,1.2,1.39,2.65,1.21,4.35h-33.89c-1.92,0-3.45-.65-4.58-1.96-1.13-1.4-1.57-3.1-1.31-5.1l5.1-38.67Z"/>
    <path d="M252.47,46.73c2.53,0,4.63,.95,6.31,2.85,1.68,1.9,2.5,4.22,2.45,6.97l-1.05,25.38h-12.82l1.5-35.2h3.6Z"/>
    <path d="M313.52,42.08l1.37-9.88h-9.62c-.96,0-1.79,.32-2.49,.95-.7,.63-1.13,1.45-1.31,2.45l-.85,6.48h-4.38c-.78,0-1.46,.26-2.03,.78-.57,.52-.92,1.18-1.05,1.96l-.33,2.49h7.07l-5.31,39.9-10.9,.6c-1.91,.11-3.49-1.48-3.37-3.39l1.46-24.48c.09-2.75-.72-5.09-2.42-7.03-1.7-1.94-3.82-2.91-6.35-2.91h-3.01l-2.07,34.8c-.29,4.87,3.7,8.91,8.57,8.7l35.05-1.56c.74-.09,1.37-.38,1.9-.88,.52-.5,.85-1.14,.98-1.93l.41-2.92-7.21,.33,5.22-39.22h4.12c.74,0,1.4-.26,1.96-.79,.57-.52,.92-1.2,1.05-2.03l.33-2.42h-6.8Z"/>
    <path d="M351.87,42.08l1.37-9.88h-9.62c-.96,0-1.79,.32-2.49,.95-.7,.63-1.13,1.45-1.31,2.45l-.85,6.48h12.89Z"/>
    <path d="M331.02,67.34l.65-5.17h32.49l-3.21,24.4c-.13,.96-.46,1.88-.98,2.75-.52,.87-1.18,1.64-1.96,2.29-.83,.65-1.75,1.18-2.75,1.57-1,.39-2.05,.59-3.14,.59h-26.96c-1.05,0-2.03-.2-2.94-.59-.92-.39-1.68-.92-2.29-1.57-.61-.65-1.07-1.42-1.37-2.29-.31-.87-.39-1.79-.26-2.75l3.27-24.4h12.95l-.72,5.17-.26,2.16-2.22,16.68c-.09,.61,.09,1.16,.52,1.64,.44,.48,1,.72,1.7,.72h11.32c.7,0,1.35-.24,1.96-.72,.61-.48,.96-1.02,1.05-1.64l2.49-18.84h-19.34Z"/>
    <path d="M362,53.92h4.58l-.33,2.36c-.13,.83-.48,1.5-1.05,2.03-.57,.52-1.24,.78-2.03,.78h-42.46l.26-2.29c.13-.87,.49-1.57,1.08-2.09,.59-.52,1.28-.79,2.06-.79h1.57l-.49-9.16h4.12c2.36,0,4.34,.86,5.95,2.59s2.46,4.05,2.55,6.58h11.61l1.14-2.82c1.7-4.23,4.43-6.35,8.18-6.35h6.28l-3.04,9.16Z"/>
    <path d="M395.89,69.89h-1.5l-2.94,22.05c-.09,.57-.34,1.04-.75,1.41-.42,.37-.88,.56-1.41,.56h-9.16l3.21-24.01h-1.51l-2.88,14.33c-.65,2.88-2.04,5.21-4.15,7-2.12,1.79-4.55,2.68-7.3,2.68l4.97-24.01h-1.77l.39-3.27c.09-.57,.33-1.02,.72-1.37,.39-.35,.85-.52,1.37-.52h10.86l.06-.72c.13-.7,.45-1.28,.95-1.73,.5-.46,1.08-.69,1.73-.69h8.7l-.46,3.14h12.69l-.46,3.27c-.09,.57-.33,1.02-.72,1.37-.39,.35-.83,.52-1.31,.52l-1.44,24.01c-2.53,0-4.66-.96-6.38-2.88-1.72-1.92-2.54-4.27-2.45-7.07l.91-14.07Z"/>
    <path d="M432.14,57l-4.71-14.26h-8.9l-2.29,16.49c-.09,.65-.35,1.18-.79,1.57-.44,.39-.94,.59-1.5,.59h-12.76l2.55-18.65h-8.31l-8.7,14.72c-1.4,2.49-3.97,3.79-7.72,3.93h-7.92l11.65-18.65h-58.95l.33-2.29c.13-.83,.49-1.52,1.08-2.06,.59-.54,1.28-.82,2.06-.82h77.14l.33-2.82c.13-.74,.45-1.35,.95-1.83,.5-.48,1.1-.72,1.8-.72h12.37l-.65,5.37h30.36l-.33,2.29c-.13,.83-.49,1.51-1.08,2.06s-1.28,.82-2.06,.82h-5.82l6.08,18.65h-7.85c-3.31-.13-5.43-1.59-6.35-4.38Z"/>
    <path d="M433.77,69.89h-1.51l-2.94,22.05c-.09,.57-.33,1.04-.72,1.41-.39,.37-.87,.56-1.44,.56h-9.1l3.21-24.01h-1.57l-2.88,14.27c-.65,2.92-2.03,5.27-4.12,7.06-2.09,1.79-4.51,2.68-7.26,2.68l4.91-24.01h-1.77l.46-3.27c.09-.57,.33-1.02,.72-1.37,.39-.35,.85-.52,1.37-.52h10.86l.06-.72c.13-.7,.44-1.28,.92-1.73,.48-.46,1.07-.69,1.77-.69h8.64l-.39,3.14h12.69l-.46,3.27c-.09,.57-.33,1.02-.72,1.37-.39,.35-.85,.52-1.37,.52l-1.37,24.01c-2.57,0-4.71-.96-6.41-2.88-1.7-1.92-2.51-4.27-2.42-7.07l.85-14.07Z"/>
  </g>
</svg>